# xmcd CD database file
#
# Track frame offsets:
#	150
#	22305
#	42324
#	71733
#	98145
#	113524
#	140881
#	158981
#	185218
#	200767
#	214871
#	239071
#
# Disc length: 3614 seconds
#
# Revision: 0
# Processed by: cddbd v1.4PL0 Copyright (c) Steve Scherf et al.
# Submitted via: CDex 1.40Beta9
#
DISCID=c30e1c0c
DTITLE=Peter Garstenauer - Funny World
DYEAR=1998
DGENRE=Blues
TTITLE0=Blues in my Pockets
TTITLE1=I hate to be in Love
TTITLE2=Bunch of Lies
TTITLE3=Down for You
TTITLE4=Freedom in a Cage
TTITLE5=Feels like Years
TTITLE6=Talking about Things
TTITLE7=I Wonder
TTITLE8=Money´s not enough
TTITLE9=Highway Slide
TTITLE10=Funny World
TTITLE11=Midnight Flow
EXTD=YEAR: 1998 ID3G: 0
EXTT0=
EXTT1=
EXTT2=
EXTT3=
EXTT4=
EXTT5=
EXTT6=
EXTT7=
EXTT8=
EXTT9=
EXTT10=
EXTT11=
PLAYORDER=
